<?xml version="1.0" encoding="utf-8"?>
<!-- Generator: Adobe Illustrator 18.1.1, SVG Export Plug-In . SVG Version: 6.00 Build 0)  -->
<!DOCTYPE svg PUBLIC "-//W3C//DTD SVG 1.1//EN" "http://www.w3.org/Graphics/SVG/1.1/DTD/svg11.dtd">
<svg version="1.1" id="Layer_1" xmlns="http://www.w3.org/2000/svg" xmlns:xlink="http://www.w3.org/1999/xlink" x="0px" y="0px"
	 width="24px" height="24px" viewBox="0 0 24 24" enable-background="new 0 0 24 24" xml:space="preserve">
  <g>
    <path d="M17.56,15a1.53,1.53,0,0,0-2.33,0c-.55.54-1.09,1.08-1.63,1.63a.32.32,0,0,1-.45.08c-.35-.19-.73-.35-1.07-.56A17,17,0,0,1,8,12.4a9.64,9.64,0,0,1-1.46-2.35.34.34,0,0,1,.08-.43C7.17,9.1,7.7,8.55,8.24,8a1.54,1.54,0,0,0,0-2.39L7,4.34C6.51,3.9,6.08,3.46,5.63,3A1.55,1.55,0,0,0,3.3,3c-.55.54-1.08,1.09-1.64,1.62a2.62,2.62,0,0,0-.83,1.8,7.44,7.44,0,0,0,.59,3.26,19.66,19.66,0,0,0,3.52,5.88,21.76,21.76,0,0,0,7.23,5.65,10.33,10.33,0,0,0,4,1.17,3,3,0,0,0,2.52-1c.47-.52,1-1,1.49-1.5a1.57,1.57,0,0,0,0-2.38Z" transform="translate(0 0)" fill="none" stroke="#d5dddf" stroke-width="2" stroke-linecap="square" stroke-miterlimit="10"/>
    <path d="M16.69,11.3,18.38,11a7.63,7.63,0,0,0-2.11-4.08A7.52,7.52,0,0,0,12,4.78l-.24,1.7a5.88,5.88,0,0,1,5,4.82Z" transform="translate(0 0)" fill="#d5dddf"/>
    <path d="M19.33,4A12.41,12.41,0,0,0,12.18.38l-.24,1.7A10.88,10.88,0,0,1,21.15,11l1.7-.29A12.52,12.52,0,0,0,19.33,4Z" transform="translate(0 0)" fill="#d5dddf"/>
  </g>
</svg>
