<svg xmlns="http://www.w3.org/2000/svg" width="128" height="128" viewBox="0 0 128 128"><defs><style>.a{fill:#fff;}.b{fill:#7aaccf;}.c{fill:#005987;}</style></defs><title>icon</title><rect class="a" x="28.06" y="10.63" width="71.88" height="104.73"/><path d="M99.07,5.5H28.93a7,7,0,0,0-7,7V113.31a7.17,7.17,0,0,0,7,7.19H99.07c3.88,0,7-3.62,7-7.5V12.53A7,7,0,0,0,99.07,5.5ZM43.46,110.23H32.17V98.94H43.46Zm17.46,0H49.62V98.94h11.3Zm17.46,0H67.08V98.94h11.3ZM43.46,92.78H32.17V81.48H43.46Zm17.46,0H49.62V81.48h11.3Zm17.46,0H67.08V81.48h11.3ZM43.46,75.32H32.17V64H43.46Zm17.46,0H49.62V64h11.3Zm17.46,0H67.08V64h11.3ZM43.46,57.87H32.17V46.57H43.46Zm17.46,0H49.62V46.57h11.3Zm17.46,0H67.08V46.57h11.3Zm17.45,0H84.54V46.57H95.83Zm0,17.45H84.54V64H95.83Zm0,34.91H84.54V81.48H95.83Zm0-71.87H32.17V15.77H95.83Z"/><rect class="b" x="84.54" y="46.57" width="11.29" height="11.29"/><rect class="b" x="84.54" y="64.03" width="11.29" height="11.29"/><rect class="c" x="84.54" y="81.48" width="11.29" height="28.75"/></svg>